<?xml version="1.0" standalone="no"?>
<!DOCTYPE svg PUBLIC "-//W3C//DTD SVG 20010904//EN"
 "http://www.w3.org/TR/2001/REC-SVG-20010904/DTD/svg10.dtd">
<svg version="1.0" xmlns="http://www.w3.org/2000/svg"
 width="260.000000pt" height="260.000000pt" viewBox="0 0 260.000000 260.000000"
 preserveAspectRatio="xMidYMid meet">
<metadata>
Created by potrace 1.14, written by Peter Selinger 2001-2017
</metadata>
<g transform="translate(0.000000,260.000000) scale(0.100000,-0.100000)"
fill="#000000" stroke="none">
<path d="M1935 2418 c-36 -6 -336 -9 -744 -8 -634 1 -689 0 -748 -17 -34 -10
-63 -21 -63 -25 0 -5 -6 -8 -13 -8 -27 0 -97 -72 -124 -128 l-28 -57 -2 -545
c-4 -1005 -4 -1175 2 -1220 14 -94 84 -177 175 -206 30 -9 66 -21 80 -26 33
-13 582 -12 640 1 109 24 421 34 670 22 404 -19 461 -14 551 46 41 27 90 98
104 148 4 17 7 149 6 295 0 146 3 405 8 575 6 207 6 361 -1 464 -8 113 -8 195
1 304 10 131 9 157 -5 208 -37 131 -145 190 -344 188 -58 -1 -132 -6 -165 -11z
m343 -79 c29 -12 54 -30 57 -40 4 -11 11 -19 16 -19 6 0 16 -15 23 -32 11 -27
12 -155 8 -663 -2 -346 -4 -745 -3 -885 2 -254 -5 -315 -35 -347 -7 -7 -14
-16 -16 -21 -1 -4 -21 -21 -42 -37 l-39 -30 -536 0 c-426 0 -542 -3 -566 -14
-23 -10 -104 -14 -340 -14 -299 -1 -312 -1 -377 22 -81 27 -131 77 -147 149
-8 32 -9 178 -5 457 7 510 8 640 6 985 -2 274 2 360 19 360 5 0 9 6 9 14 0 8
19 31 42 51 79 67 69 66 825 65 436 -1 689 2 708 8 17 6 100 11 186 11 138 1
162 -2 207 -20z"/>
<path d="M795 2025 c-38 -8 -86 -18 -105 -23 -118 -31 -233 -124 -244 -196 -5
-27 -16 -571 -20 -918 -1 -116 1 -128 19 -143 24 -19 50 -15 140 19 147 56
158 59 266 60 100 1 124 -4 179 -35 8 -4 33 -18 55 -29 49 -26 98 -79 134
-145 21 -39 33 -50 52 -50 20 0 25 7 32 40 5 22 13 227 18 455 4 228 11 451
15 495 15 186 -38 314 -168 403 -61 42 -88 52 -183 68 -93 16 -97 16 -190 -1z
m229 -70 c87 -27 205 -114 206 -152 0 -7 4 -13 8 -13 5 0 15 -38 22 -84 10
-66 11 -122 2 -272 -6 -104 -11 -307 -11 -452 1 -145 -2 -266 -5 -269 -4 -4
-30 16 -59 44 -52 52 -113 88 -197 117 -50 17 -208 22 -256 7 -16 -5 -56 -17
-89 -26 -33 -10 -64 -20 -70 -24 -5 -3 -25 -11 -43 -17 -28 -10 -34 -10 -39 3
-3 9 -2 110 3 227 5 116 9 333 9 482 l0 270 29 38 c15 21 36 40 45 43 9 4 18
9 21 12 14 17 97 49 180 70 55 14 190 12 244 -4z"/>
<path d="M1655 2008 c-108 -35 -210 -113 -239 -182 -27 -66 -60 -629 -61
-1046 l0 -225 31 -3 c24 -2 33 2 44 23 7 14 17 25 22 25 4 0 8 6 8 14 0 8 12
27 28 44 139 151 144 154 239 171 48 9 78 8 144 -4 104 -18 129 -25 129 -35 0
-5 10 -12 23 -16 12 -4 24 -10 27 -14 3 -4 24 -19 48 -34 43 -27 43 -27 75 -9
21 12 36 33 45 57 23 69 35 247 39 587 5 362 0 414 -47 482 -24 35 -111 107
-129 107 -6 0 -11 4 -11 9 0 5 -8 11 -17 14 -10 3 -45 15 -77 26 -47 17 -82
21 -175 20 -64 -1 -129 -6 -146 -11z m219 -49 c72 -14 84 -18 156 -53 70 -34
113 -74 140 -126 21 -41 21 -49 16 -429 -5 -390 -13 -532 -31 -563 -9 -15 -16
-13 -66 20 -108 72 -162 87 -299 87 -94 0 -111 -3 -162 -28 -57 -28 -140 -100
-172 -149 -10 -16 -23 -28 -28 -28 -19 0 5 734 32 1003 10 93 19 122 60 169 8
10 20 18 26 18 7 0 14 3 16 8 7 15 105 56 163 68 80 16 80 16 149 3z"/>
</g>
</svg>
